<svg width="43" height="50" viewBox="0 0 43 50" fill="none" xmlns="http://www.w3.org/2000/svg">
<g filter="url(#filter0_d_21_69)">
<path d="M31 10.6901C29.3661 1.52036 19.7184 -0.240851 15.0988 0.024761C3.83671 0.024761 0.340392 7.33932 0 10.9966V35.8824C0.170196 36.6588 0.992 38.1871 2.91765 38.0891C5.32471 37.9665 6.49176 36.1276 7.29412 34.35C7.936 32.928 8.87451 32.2047 9.26353 32.0208C13.4941 31.3466 20.2047 36.9244 23.1224 39.8053C25.4565 42.11 27.6933 42.155 28.52 41.8894C30.3289 41.3009 30.9271 39.9279 31 39.315V10.6901Z" fill="url(#paint0_linear_21_69)"/>
</g>
<circle cx="9.98419" cy="14.9842" r="3.98419" fill="#2B3033"/>
<circle cx="21.6302" cy="14.9842" r="3.98419" fill="#2B3033"/>
<defs>
<filter id="filter0_d_21_69" x="0" y="0" width="43" height="50" filterUnits="userSpaceOnUse" color-interpolation-filters="sRGB">
<feFlood flood-opacity="0" result="BackgroundImageFix"/>
<feColorMatrix in="SourceAlpha" type="matrix" values="0 0 0 0 0 0 0 0 0 0 0 0 0 0 0 0 0 0 127 0" result="hardAlpha"/>
<feOffset dx="8" dy="4"/>
<feGaussianBlur stdDeviation="2"/>
<feComposite in2="hardAlpha" operator="out"/>
<feColorMatrix type="matrix" values="0 0 0 0 0.141176 0 0 0 0 0.152941 0 0 0 0 0.160784 0 0 0 1 0"/>
<feBlend mode="normal" in2="BackgroundImageFix" result="effect1_dropShadow_21_69"/>
<feBlend mode="normal" in="SourceGraphic" in2="effect1_dropShadow_21_69" result="shape"/>
</filter>
<linearGradient id="paint0_linear_21_69" x1="1.70386" y1="-1.90909" x2="29.3917" y2="40.9507" gradientUnits="userSpaceOnUse">
<stop stop-color="#4ACAE7"/>
<stop offset="1" stop-color="#EAD16E"/>
</linearGradient>
</defs>
</svg>
